<svg xml:space="preserve" viewBox="0 6.8 908.5066162570889 674.9" y="0px" x="0px" version="1.1" xmlns:xlink="http://www.w3.org/1999/xlink" xmlns="http://www.w3.org/2000/svg" style="max-height: 500px" width="908.5066162570889" height="674.9"><path d="M599.689,163.308c0-82.745-66.613-150.073-148.5-150.073c-81.865,0-148.469,67.328-148.469,150.073  c0,48.972,25.215,85.299,67.034,145.489c21.395,30.783,47.973,69.061,77.33,118.407c0.882,1.445,2.43,2.348,4.114,2.348  c1.688,0,3.243-0.912,4.125-2.348c29.359-49.346,55.926-87.624,77.331-118.407C574.464,248.607,599.689,212.28,599.689,163.308z   M451.189,221.408c-31.721,0-57.475-26.019-57.475-58.09c0-32.09,25.754-58.09,57.475-58.09c31.731,0,57.484,26,57.484,58.09  C508.674,195.389,482.939,221.408,451.189,221.408z M441.408,449.333v216.021l-199.889-89.783l77.575-261.59l41.829,14.079  c21.022,30.247,47.022,67.765,75.941,116.37C438.065,446.403,439.621,448.046,441.408,449.333z M582.864,313.981l77.564,261.59  l-199.86,89.783v-216.07c1.815-1.307,3.401-2.971,4.617-4.961c29.003-48.744,54.927-86.129,75.884-116.272L582.864,313.981z   M299.501,312.604l-79.201,267.045L23.829,667.929c-3.673,1.664-8.012,0.793-10.814-2.158c-2.812-2.99-3.447-7.375-1.655-11.049  l143.728-290.471c1.155-2.258,3.145-4.041,5.535-4.832L299.501,312.604z M892,659.067c0,5.416-4.446,9.574-9.746,9.695  c-0.078,0-0.169,0-0.207,0c-1.294,0-2.636-0.27-3.89-0.834L681.619,579.61l-79.153-267.006l139.016,46.824  c2.421,0.791,4.399,2.582,5.536,4.852l142.533,288.322C891.079,654.315,892,656.573,892,659.067z"/><text font-family="'Helvetica Neue', Helvetica, Arial-Unicode, Arial, Sans-serif" font-weight="bold" font-size="5px" fill="#000000" y="695" x="0">Created by alrigel</text><text font-family="'Helvetica Neue', Helvetica, Arial-Unicode, Arial, Sans-serif" font-weight="bold" font-size="5px" fill="#000000" y="700" x="0">from the Noun Project</text></svg>